<?xml version="1.0" encoding="utf-8"?>
<!-- Generator: Adobe Illustrator 25.4.1, SVG Export Plug-In . SVG Version: 6.00 Build 0)  -->
<svg version="1.1" id="Layer_1" xmlns="http://www.w3.org/2000/svg" xmlns:xlink="http://www.w3.org/1999/xlink" x="0px" y="0px"
	 width="254px" height="254px" viewBox="0 0 254 254" style="enable-background:new 0 0 254 254;" xml:space="preserve">
<style type="text/css">
	.st0{fill:#C61517;}
	.st1{fill:#FFFFFF;}
</style>
<g>
	<rect y="0" class="st0" width="254" height="254"/>
	<g>
		<path class="st1" d="M117,137.4H98.5v49.9h8.8v-16h9.7c11.3,0,16.5-8.8,16.5-16.9C133.5,146,127.8,137.4,117,137.4z M117,162.7
			h-9.7v-16.5h9.7c5.4,0,7.9,4.3,7.9,8.3C124.8,158.5,122.4,162.7,117,162.7z"/>
		<path class="st1" d="M227.9,144.2c-4.9-4.9-11.4-7.6-18.2-7.6s-13.4,2.8-18.2,7.6l0,0c-4.8,5-7.5,11.4-7.5,18.2s2.7,13.3,7.5,18.2
			s11.2,7.6,18.2,7.6c6.9,0,13.4-2.7,18.3-7.6c4.8-5,7.5-11.4,7.5-18.2C235.4,155.6,232.7,149.2,227.9,144.2z M209.6,179.4
			c-4.5,0-8.7-1.8-11.8-5.1c-3.2-3.1-5-7.4-5-12s1.8-8.8,5-12s7.4-5,11.8-5c4.5,0,8.8,1.8,12,5l0,0c3.2,3.2,4.9,7.4,4.9,12
			s-1.7,8.8-4.9,12C218.5,177.6,214.1,179.4,209.6,179.4z"/>
	</g>
	<g>
		<g>
			<path class="st1" d="M31.4,198.9c-0.3-1.6-2.1-2.3-3.6-2.2c-1.2,0-2.5,0.4-3.2,1.3c-0.3,0.5-0.5,1-0.4,1.6c0.1,1.8,2.1,2,4,2.2
				c2.4,0.3,5.4,0.9,6.1,3.7c0.1,0.4,0.1,0.8,0.1,1.1c0,3.4-3.3,5.3-6.5,5.3c-2.7,0-6-1.6-6.3-4.7v-0.5l2.6-0.1v0.4v-0.1
				c0.2,1.6,2.2,2.5,3.8,2.5c1.9,0,3.9-1,3.9-2.8c0-0.2,0-0.4-0.1-0.6c-0.3-1.3-2.1-1.5-3.8-1.7c-2.7-0.3-5.9-0.9-6.2-4.5l0,0
				c-0.1-1.2,0.2-2.3,0.9-3.3c1.2-1.5,3.3-2.3,5.3-2.3c2.7,0,5.5,1.4,6,4.6L31.4,198.9z"/>
			<path class="st1" d="M52.4,201.8h7.4v-7.4h2.6v17.5h-2.6v-7.6h-7.4v7.6h-2.5v-17.5h2.5V201.8z"/>
			<path class="st1" d="M80.3,196.7c1.6-1.6,3.9-2.7,6.4-2.7s4.8,1,6.4,2.7s2.6,3.9,2.6,6.4s-1,4.8-2.6,6.4
				c-1.7,1.7-3.9,2.7-6.4,2.7s-4.8-1-6.4-2.7c-1.6-1.6-2.6-3.9-2.6-6.4C77.6,200.6,78.7,198.4,80.3,196.7z M91.2,198.6
				c-1.2-1.2-2.8-1.9-4.6-1.9c-1.7,0-3.3,0.7-4.5,1.9c-1.2,1.1-1.9,2.8-1.9,4.6s0.7,3.4,1.9,4.6c1.2,1.2,2.8,1.9,4.5,1.9
				c1.8,0,3.4-0.7,4.6-1.9c1.1-1.1,1.9-2.8,1.9-4.6C93.1,201.3,92.4,199.7,91.2,198.6z"/>
			<path class="st1" d="M112.9,196.7c1.6-1.6,3.9-2.7,6.4-2.7s4.8,1,6.4,2.7s2.6,3.9,2.6,6.4s-1,4.8-2.6,6.4
				c-1.7,1.7-3.9,2.7-6.4,2.7s-4.8-1-6.4-2.7c-1.6-1.6-2.6-3.9-2.6-6.4C110.3,200.6,111.3,198.4,112.9,196.7z M123.9,198.6
				c-1.2-1.2-2.8-1.9-4.6-1.9c-1.7,0-3.3,0.7-4.5,1.9c-1.2,1.1-1.9,2.8-1.9,4.6s0.7,3.4,1.9,4.6c1.2,1.2,2.8,1.9,4.5,1.9
				c1.8,0,3.4-0.7,4.6-1.9c1.2-1.1,1.9-2.8,1.9-4.6C125.8,201.3,125,199.7,123.9,198.6z"/>
			<path class="st1" d="M147.1,211.9v-15.1h-5.3v-2.4h13.1v2.4h-5.3v15.1H147.1z"/>
			<path class="st1" d="M172,209.4h8.1v2.5h-10.7v-17.5h10.7v2.5H172v4.9h7.9v2.5H172V209.4z"/>
			<path class="st1" d="M199.1,203h3c2.1,0,3.2-1.5,3.2-3.1c0-1.5-1-3-3.2-3h-3.9v15h-2.5v-17.5h6.4c3.8,0,5.7,2.8,5.7,5.6
				c0,2.5-1.5,4.8-4.5,5.4l5.5,6.6h-3.3l-6.4-7.7V203z"/>
			<path class="st1" d="M232.5,198.9c-0.3-1.6-2.1-2.3-3.6-2.2c-1.2,0-2.5,0.4-3.2,1.3c-0.3,0.5-0.5,1-0.4,1.6c0.1,1.8,2.1,2,4,2.2
				c2.4,0.3,5.4,0.9,6.1,3.7c0.1,0.4,0.1,0.8,0.1,1.1c0,3.4-3.4,5.3-6.5,5.3c-2.7,0-6-1.6-6.3-4.7v-0.5l2.5-0.1v0.4v-0.1
				c0.2,1.6,2.2,2.5,3.8,2.5c1.9,0,3.9-1,3.9-2.8c0-0.2,0-0.4-0.1-0.6c-0.3-1.3-2.1-1.5-3.8-1.7c-2.7-0.3-5.9-0.9-6.2-4.5l0,0
				c-0.1-1.2,0.2-2.3,1-3.3c1.2-1.5,3.3-2.3,5.3-2.3c2.7,0,5.5,1.4,6,4.6L232.5,198.9z"/>
		</g>
	</g>
	<path class="st1" d="M165,169c7.2-1.9,11.7-7.7,11.7-15.3c0-8.1-5.7-16.2-16.6-16.2h-18.4v49.9h8.6v-41.2h9.8
		c5.4,0,7.9,3.9,7.9,7.5s-2.5,7.5-7.9,7.5H152v5.6l17.1,20.6h11.3L165,169z"/>
	<g>
		<g>
			<path class="st1" d="M238.5,83.1l0.1-0.8c-1-0.2-1.6-0.3-3-0.7l-0.2,1.2l-33-2.5l-0.1-0.8l-5.4-1.8c-0.1,0-0.5,0.1-0.6,0.3
				l-0.6,0c-0.2,0.2-0.3,2.3-0.2,2.4c-2.7-0.3-3.2,1.5-1.8,3.2c0,0-0.2,0.3-0.3,0.7c-0.1,0.5-0.1,1.3-0.4,1.6
				c0.1-0.1-2.3,0.8-2.7,1.2c-0.1,0-0.1,0-0.2,0c-0.3-0.2-1.5-0.3-2.1-0.3c-0.7,0,0.9,1.1,1.1,1.3c-2.7,2.2-4.3,5.5-8.4,6.6
				c-0.7,0.2-3,0.9-5.7,1.2c-5.3,0.7-12.1,2.8-16.7,3.2c-3.8,0.4-15.8,1.2-19.7,1.3c-5.8,0.3-14.2,4.2-20.9,4.7
				c-11.4,0.4-24.9,1.9-35.1-1.6c-0.3-1.6-12-3.3-10.6-4.6c0.6-0.6,1.2-1.3,2.3-1.9c5.1-3.1,15.3,3.1,15.4-5.9
				c-0.2-1.4-0.8-1.9,0.4-3c1.6-1,1.7-2.1,0.4-3.1c1.7-0.3,0.9-1.7,1.2-3.2c0-2.6,1.5-2,3.2-2.9c2.9-1.1,0.2-5.8-0.6-7.1
				c0,0,1-2.4,1.1-2.7c0.4-0.8,0.6-1.9-0.2-2.4l0-0.6c3.3,0.8,9.6,1.6,12.5-1.9c1.7-1.6,3.4-4.3,3.7-6c0-0.2,0.4-0.7-0.6-1
				c-1-0.3-16.3-5-16.3-5s-0.1-0.3-0.4-1.1c-0.4-0.9-5.6-11.9-9.1-15.2C79,31,71.1,28.8,63,29c0.1-1.6-4.1-0.8-3.6,0.6
				c-5.1,1.9-11.2,3.6-15.3,8.6c-2.9,3.5-5.4,7.1-4.7,11.5c0,0.2-0.3,0.6-0.3,0.9c0,0.2,0,0-0.3,0.2c-0.6,0.4-0.6,0.7-0.7,1.2
				c-10.8-3-18.2,5.6-19,16.4c-0.6,5.4,1,11.2,2.5,14.7c0,0-0.8,1.9,0,5c0.8,3.1,1.4,4.7,1.4,4.7c-0.7,2.4,3.2,6.2,4.1,7
				c0,0,0.3,0.2,0.3,0.2s-0.3,0.4-0.4,0.5c-0.2,0.4-1.3,1.5-1.3,1.5l-1,0.6l0.2,0.2c0,0-0.2,0.5-0.9,1.1c-1.3,1.2-1.8,1.8-3,2.6
				c1.3-0.3,3.7-1.8,4.3-2.7c-1,1.6-2.7,3.8-4.6,4.9l1.2,0c-0.4,1.9-7,2.2-7.8,2c0,0,0.3,0.5,0.5,0.6c-0.6,0-0.8,0.1-0.9,0.2
				c0,0,0.4,0.4,0.9,0.7h-1c0,0,0.1,0.5,1.9,0.6c4.3,0.9,7.3-2.2,9.5-3.6c0,0.1-0.9,1.7-1.5,2.3c-0.9,0.9-1.1,0.9-1.3,1.5
				c0,0,0.5,0.2,0.8,0c0.3-0.2,0.1,0.3,0,0.6s-1.2,1.5-1.9,2c-0.9,0.6-3.3,1.5-3.7,1.6c0,0,0.9,0,1.4,0c0.8-0.1,1.4-0.3,1.4-0.3
				s-0.1,0.3-1.1,0.8c-1.7,0.9-3.8,0.2-4.9-0.4c1.6,2.7,7,1.8,8.7-0.4c0,0-0.1,1.4-0.4,1.8c-0.4,1-5.9,0.6-6.2,0.7
				c0,0,0.3,0.5,1.1,0.9c3.1,1.1,4.9,0.6,5.3,0.8c1.2,4.3-0.6,9.5,0.6,17.3c2.2,14,3.2,47.6,3,49.5h47.5c1-2.7,0.5-16,3.4-17.2
				c14.3-5.9,15.3-17.1,7.5-28.5c-3.2-4.1-2.1-6.7-2.7-9.4c11-1.6,29.2-7.4,40.7-8.5c1.8-0.2,4.2-0.4,6.1-0.3
				c5.8,0.3,10.8-1.4,15.4-2.1c6.1-0.9,15.4-4.2,21.6-6.6c6.3-1.8,12.5-4.5,17-6.2c0.6-0.1,2.4-0.1,2.4-0.1v1.8c0,0,2.7,0.8,6.4,0.9
				c2.5,0.1,5.3,1.9,9.2,1c1.9-0.7,2.8-1.5,2.6-3.1c0.1,0.2,1.9-0.1,3-1c0.9-0.7,1.2-1.8,0.5-2.9c0.6,0,2.4-0.4,3.1-1.2
				c0.2-0.3,0.2-0.6,0.1-1.1c0.8,0.1,2.7-0.1,3.5-1.1c0.5-0.6,0.6-1.6,0.2-2.8c2.8,0.2,3.3-1.6,3.4-2.7c0.1-2.6,0.2-4,2.3-5
				c0.3-0.1,0.6-0.1,1.1-0.1c4.5,0.2,16.3,1,16.9,1.1L238,91l0.3,0l0.2-3.4l0.5,0l0.3-4.5C239.3,83.2,238.5,83.1,238.5,83.1z
				 M39.6,62.4c-0.1,0.2,0.8-3.6,0.8-3.4c0.4,0.1,0.8,0.2,1.3,0.1c0.9,0,0.7,1.7,0.6,2.2c-0.3,1.1,0.1,3.6,0.7,4.6
				c0.3,0.6,1.4,1.4,1.4,1.5c0.2,0.2-1.9,4-2.4,3.1c-0.7-0.8-1.6-2-2.1-3C39.4,66.5,38.8,64.3,39.6,62.4z M43.8,93.4
				c-1.1,0.2-2-0.1-1.8-0.9c0.1-0.8,0.8-3.3,0.9-3.8c0.1-0.5,0.6-1.9,0.6-1.9c0.4,0.2,3,1.7,3,3C46.5,90.5,44.9,93.2,43.8,93.4z
				 M216.9,96.1c0,1.5-0.4,2.3-1.4,2.3c-4,0.2-3.7-1.2-3.7-3.1c0-0.5,0.9-0.3,0.9-0.3c0.4,1.1,2.8,0.9,3-0.6c0-0.4,0-0.9,0-1.4h1.2
				C217,94.3,216.9,94.8,216.9,96.1z"/>
		</g>
	</g>
</g>
</svg>
