<?xml version="1.0" encoding="utf-8"?>
<!-- Generator: Adobe Illustrator 25.4.1, SVG Export Plug-In . SVG Version: 6.00 Build 0)  -->
<svg version="1.1" id="Layer_1" xmlns="http://www.w3.org/2000/svg" xmlns:xlink="http://www.w3.org/1999/xlink" x="0px" y="0px"
	 width="254px" height="254px" viewBox="0 0 254 254" style="enable-background:new 0 0 254 254;" xml:space="preserve">
<style type="text/css">
	.st0{fill:#C61517;}
	.st1{fill:#FFFFFF;}
</style>
<g>
	<circle class="st0" cx="127" cy="127" r="127"/>
	<g>
		<path class="st1" d="M115.8,129.3H99.3v44.4h7.8v-14.3h8.6c10.1,0,14.7-7.8,14.7-15C130.4,136.9,125.4,129.3,115.8,129.3z
			 M115.8,151.7h-8.6V137h8.6c4.8,0,7,3.8,7,7.4C122.8,148,120.6,151.7,115.8,151.7z"/>
		<path class="st1" d="M214.4,135.3c-4.4-4.4-10.1-6.8-16.2-6.8c-6,0-11.9,2.5-16.2,6.8l0,0c-4.3,4.4-6.6,10.2-6.6,16.2
			s2.4,11.8,6.7,16.2c4.2,4.4,10,6.8,16.2,6.8s11.9-2.4,16.2-6.8c4.3-4.4,6.7-10.2,6.7-16.2C221.1,145.4,218.7,139.7,214.4,135.3z
			 M198.2,166.6c-4,0-7.7-1.6-10.5-4.5c-2.9-2.8-4.4-6.6-4.4-10.6c0-4.1,1.6-7.9,4.4-10.7c2.8-2.9,6.6-4.5,10.5-4.5
			c4,0,7.9,1.6,10.6,4.5l0,0c2.8,2.8,4.4,6.6,4.4,10.7c0,4.1-1.5,7.8-4.4,10.7C206,165,202.2,166.6,198.2,166.6z"/>
	</g>
	<g>
		<g>
			<path class="st1" d="M39.7,184c-0.3-1.4-1.8-2-3.2-2c-1,0-2.2,0.4-2.8,1.2c-0.3,0.4-0.4,0.9-0.4,1.4c0.1,1.6,1.9,1.8,3.5,2
				c2.1,0.3,4.8,0.8,5.4,3.3c0.1,0.3,0.1,0.7,0.1,1c0,3-3,4.7-5.8,4.7c-2.4,0-5.3-1.4-5.6-4.2V191h2.3v0.3v-0.1
				c0.2,1.4,1.9,2.2,3.4,2.2c1.7,0,3.5-0.9,3.5-2.5c0-0.2,0-0.3-0.1-0.5c-0.3-1.2-1.9-1.4-3.4-1.5c-2.4-0.2-5.3-0.8-5.5-4l0,0
				c-0.1-1,0.2-2.1,0.8-3c1-1.4,2.9-2.1,4.7-2.1c2.4,0,4.9,1.2,5.3,4.1L39.7,184z"/>
			<path class="st1" d="M58.3,186.5h6.6V180h2.3v15.5h-2.3v-6.8h-6.6v6.8H56V180h2.2L58.3,186.5L58.3,186.5z"/>
			<path class="st1" d="M83.1,182c1.4-1.5,3.5-2.4,5.7-2.4s4.2,0.9,5.7,2.4c1.4,1.5,2.3,3.5,2.3,5.7s-0.9,4.2-2.3,5.7
				c-1.5,1.5-3.5,2.4-5.7,2.4s-4.2-0.9-5.7-2.4c-1.4-1.5-2.3-3.5-2.3-5.7C80.8,185.5,81.7,183.5,83.1,182z M92.8,183.6
				c-1-1.1-2.5-1.7-4.1-1.7s-3,0.6-4,1.7c-1,1-1.7,2.5-1.7,4.1s0.6,3,1.7,4.1c1,1.1,2.5,1.7,4,1.7c1.6,0,3-0.6,4.1-1.7
				c1-1,1.7-2.4,1.7-4.1C94.5,186.1,93.9,184.7,92.8,183.6z"/>
			<path class="st1" d="M112.2,182c1.4-1.5,3.5-2.4,5.7-2.4s4.2,0.9,5.7,2.4c1.4,1.5,2.3,3.5,2.3,5.7s-0.9,4.2-2.3,5.7
				c-1.5,1.5-3.5,2.4-5.7,2.4s-4.2-0.9-5.7-2.4c-1.4-1.5-2.3-3.5-2.3-5.7C109.8,185.5,110.7,183.5,112.2,182z M121.9,183.6
				c-1-1.1-2.5-1.7-4.1-1.7s-3,0.6-4,1.7c-1,1-1.7,2.5-1.7,4.1s0.6,3,1.7,4.1c1,1.1,2.5,1.7,4,1.7c1.6,0,3-0.6,4.1-1.7
				c1-1,1.7-2.4,1.7-4.1C123.6,186.1,122.9,184.7,121.9,183.6z"/>
			<path class="st1" d="M142.5,195.5v-13.4h-4.7V180h11.7v2.1h-4.7v13.4H142.5z"/>
			<path class="st1" d="M164.7,193.2h7.2v2.2h-9.5V180h9.5v2.2h-7.2v4.4h7v2.3h-7V193.2z"/>
			<path class="st1" d="M188.8,187.6h2.6c1.9,0,2.8-1.4,2.8-2.7s-0.9-2.7-2.8-2.7H188v13.3h-2.2v-15.6h5.7c3.4,0,5.1,2.5,5.1,5
				c0,2.2-1.4,4.3-4,4.8l4.9,5.8h-2.9l-5.7-6.8v-1.1H188.8z"/>
			<path class="st1" d="M218.5,184c-0.3-1.4-1.8-2-3.2-2c-1,0-2.2,0.4-2.8,1.2c-0.3,0.4-0.4,0.9-0.4,1.4c0.1,1.6,1.9,1.8,3.5,2
				c2.1,0.3,4.8,0.8,5.4,3.3c0.1,0.3,0.1,0.7,0.1,1c0,3-3,4.7-5.8,4.7c-2.4,0-5.3-1.4-5.6-4.2V191h2.3v0.3v-0.1
				c0.2,1.4,1.9,2.2,3.4,2.2c1.7,0,3.5-0.9,3.5-2.5c0-0.2,0-0.3-0.1-0.5c-0.3-1.2-1.9-1.4-3.4-1.5c-2.4-0.2-5.3-0.8-5.5-4l0,0
				c-0.1-1,0.2-2.1,0.8-3c1-1.4,2.9-2.1,4.7-2.1c2.4,0,4.9,1.2,5.3,4.1L218.5,184z"/>
		</g>
	</g>
	<path class="st1" d="M158.5,157.3c6.4-1.7,10.4-6.9,10.4-13.6c0-7.2-5.1-14.4-14.7-14.4h-16.4v44.4h7.7v-36.6h8.7
		c4.8,0,7,3.4,7,6.6c0,3.2-2.2,6.7-7,6.7H147v4.9l15.2,18.4h10.1L158.5,157.3z"/>
	<g>
		<g>
			<path class="st1" d="M223.8,80.5l0.1-0.7c-0.9-0.2-1.5-0.3-2.6-0.6l-0.2,1.1l-29.3-2.2l-0.1-0.7l-4.8-1.6c-0.1,0-0.5,0.1-0.5,0.3
				h-0.5c-0.2,0.2-0.2,2.1-0.2,2.1c-2.4-0.2-2.8,1.3-1.6,2.8c0,0-0.2,0.3-0.3,0.6c-0.1,0.5-0.1,1.2-0.3,1.4c0.1-0.1-2,0.8-2.4,1
				c0,0-0.1,0-0.2,0c-0.3-0.1-1.3-0.2-1.9-0.2c-0.6,0,0.8,1,1,1.1c-2.4,1.9-3.8,4.9-7.4,5.9c-0.7,0.1-2.6,0.8-5.1,1.1
				c-4.7,0.6-10.8,2.4-14.8,2.8c-3.4,0.4-14,1.1-17.5,1.2c-5.1,0.2-12.6,3.7-18.5,4.2c-10.1,0.4-22.1,1.7-31.2-1.4
				c-0.3-1.4-10.6-2.9-9.4-4.1c0.6-0.5,1.1-1.2,2-1.7c4.5-2.7,13.6,2.7,13.6-5.2C91.6,86.5,91,86,92,85c1.4-0.9,1.5-1.9,0.4-2.7
				c1.5-0.3,0.8-1.5,1-2.8c0-2.3,1.3-1.8,2.8-2.5c2.6-1,0.2-5.1-0.5-6.3c0,0,0.9-2.1,1-2.4c0.4-0.7,0.5-1.7-0.2-2.1v-0.5
				c3,0.7,8.5,1.4,11.1-1.7c1.5-1.4,3-3.9,3.3-5.3c0-0.2,0.3-0.7-0.6-0.9s-14.5-4.4-14.5-4.4s-0.1-0.2-0.4-1s-4.9-10.6-8.1-13.5
				C82,34.4,75,32.4,67.8,32.6c0-1.5-3.7-0.7-3.2,0.5c-4.5,1.7-9.9,3.2-13.6,7.6c-2.6,3.1-4.8,6.3-4.1,10.2c0,0.2-0.2,0.6-0.3,0.8
				c0,0.2,0,0-0.3,0.2C46.1,52.3,46,52.6,46,53c-9.6-2.7-16.2,4.9-16.9,14.5c-0.5,4.8,0.9,10,2.2,13.1c0,0-0.7,1.7,0,4.4
				c0.7,2.7,1.3,4.2,1.3,4.2c-0.6,2.1,2.8,5.5,3.6,6.2l0.3,0.2c0,0-0.3,0.4-0.3,0.5c-0.2,0.3-1.1,1.3-1.1,1.3l-0.8,0.5l0.2,0.2
				c0,0-0.2,0.5-0.8,1c-1.2,1.1-1.6,1.6-2.6,2.3c1.1-0.2,3.3-1.6,3.9-2.4c-0.9,1.4-2.4,3.3-4.1,4.3H32c-0.4,1.7-6.2,1.9-7,1.8
				c0,0,0.3,0.4,0.4,0.5c-0.5,0-0.7,0.1-0.8,0.2c0,0,0.3,0.3,0.8,0.6h-0.8c0,0,0.1,0.4,1.7,0.5c3.8,0.8,6.4-1.9,8.4-3.2
				c0,0.1-0.8,1.5-1.3,2c-0.8,0.8-1,0.8-1.1,1.3c0,0,0.5,0.2,0.7,0s0.1,0.3,0,0.5s-1,1.3-1.7,1.8c-0.8,0.5-2.9,1.3-3.2,1.4
				c0,0,0.8,0,1.2,0c0.7-0.1,1.3-0.3,1.3-0.3s-0.1,0.3-1,0.8c-1.5,0.8-3.3,0.2-4.3-0.3c1.4,2.4,6.2,1.6,7.7-0.4c0,0-0.1,1.2-0.3,1.6
				c-0.4,0.9-5.2,0.6-5.5,0.6c0,0,0.3,0.5,1,0.8c2.8,1,4.4,0.5,4.7,0.7c1,3.8-0.5,8.4,0.5,15.4c1.9,12.4,2.8,42.2,2.7,43.9h42.2
				c0.9-2.4,0.5-14.2,3.1-15.2c12.7-5.2,13.6-15.1,6.7-25.3c-2.8-3.7-1.9-5.9-2.4-8.3c9.7-1.4,25.9-6.6,36.1-7.5
				c1.6-0.2,3.7-0.4,5.4-0.3c5.2,0.2,9.6-1.3,13.7-1.9c5.4-0.8,13.6-3.7,19.2-5.9c5.6-1.6,11-4,15-5.5c0.6,0,2.2-0.1,2.2-0.1v1.6
				c0,0,2.4,0.7,5.6,0.8c2.2,0.1,4.7,1.7,8.2,0.9c1.6-0.6,2.5-1.3,2.3-2.8c0.1,0.2,1.7-0.1,2.6-0.9c0.8-0.6,1.1-1.6,0.4-2.5
				c0.5,0,2.2-0.3,2.8-1.1c0.2-0.3,0.1-0.6,0.1-0.9c0.7,0.1,2.4-0.1,3.1-1c0.5-0.6,0.5-1.4,0.1-2.5c2.4,0.2,2.9-1.4,3-2.4
				c0.1-2.3,0.2-3.6,2-4.4c0.3-0.1,0.5-0.1,1-0.1c4,0.2,14.5,0.9,15,0.9l0.1-1.2h0.3l0.2-3h0.5l0.3-4
				C224.5,80.6,223.8,80.5,223.8,80.5z M47.3,62.2c-0.1,0.1,0.7-3.2,0.7-3c0.3,0.1,0.7,0.1,1.2,0.1c0.8,0,0.6,1.5,0.5,1.9
				c-0.3,1,0.1,3.2,0.6,4c0.3,0.5,1.2,1.2,1.3,1.3c0.2,0.2-1.7,3.6-2.2,2.8c-0.6-0.7-1.4-1.8-1.9-2.7C47.2,65.9,46.6,63.9,47.3,62.2
				z M51.1,89.7c-1,0.2-1.8-0.1-1.6-0.8c0.1-0.7,0.7-2.9,0.8-3.3c0.1-0.5,0.5-1.7,0.5-1.7c0.4,0.2,2.7,1.5,2.7,2.7
				C53.4,87.2,52,89.5,51.1,89.7z M204.6,92.1c0,1.3-0.4,2-1.2,2c-3.6,0.1-3.3-1.1-3.3-2.8c0-0.4,0.8-0.3,0.8-0.2
				c0.3,1,2.5,0.8,2.7-0.5c0-0.4,0-0.8,0-1.2h1.1C204.6,90.5,204.6,91,204.6,92.1z"/>
		</g>
	</g>
</g>
</svg>
