<?xml version="1.0" encoding="utf-8"?>
<!-- Generator: Adobe Illustrator 25.4.1, SVG Export Plug-In . SVG Version: 6.00 Build 0)  -->
<svg version="1.1" id="Layer_1" xmlns="http://www.w3.org/2000/svg" xmlns:xlink="http://www.w3.org/1999/xlink" x="0px" y="0px"
	 width="200px" height="164px" viewBox="0 0 200 164" style="enable-background:new 0 0 200 164;" xml:space="preserve">
<style type="text/css">
	.st0{fill:#C61517;}
	.st1{fill:#6C6E76;}
</style>
<g>
	<g>
		<path class="st0" d="M91.1,97.4H74.7v44.3h7.8v-14.2h8.6c10.1,0,14.6-7.8,14.6-15C105.8,104.9,100.7,97.4,91.1,97.4z M91.1,119.8
			h-8.6v-14.6h8.6c4.8,0,7,3.8,7,7.3C98.1,116,95.9,119.8,91.1,119.8z"/>
		<path class="st0" d="M189.5,103.3c-4.4-4.4-10.1-6.8-16.2-6.8c-6,0-11.9,2.5-16.1,6.8l0,0c-4.3,4.4-6.6,10.2-6.6,16.2
			s2.4,11.8,6.6,16.2c4.2,4.4,10,6.8,16.1,6.8s11.9-2.4,16.2-6.8c4.3-4.4,6.6-10.2,6.6-16.2S193.8,107.8,189.5,103.3z M173.3,134.6
			c-3.9,0-7.7-1.6-10.5-4.5c-2.8-2.8-4.4-6.6-4.4-10.6s1.6-7.8,4.4-10.6c2.8-2.9,6.6-4.5,10.5-4.5c4,0,7.8,1.6,10.6,4.5l0,0
			c2.8,2.8,4.4,6.6,4.4,10.6s-1.5,7.8-4.4,10.6C181.2,133,177.3,134.6,173.3,134.6z"/>
	</g>
	<g>
		<g>
			<path class="st0" d="M15.2,151.9c-0.3-1.4-1.8-2-3.2-2c-1,0-2.2,0.4-2.8,1.2c-0.3,0.4-0.4,0.9-0.4,1.4c0.1,1.6,1.9,1.8,3.5,2
				c2.1,0.3,4.8,0.8,5.4,3.3c0.1,0.3,0.1,0.7,0.1,1c0,3-3,4.7-5.8,4.7c-2.4,0-5.3-1.4-5.6-4.2v-0.4h2.3v0.3v-0.1
				c0.2,1.4,1.9,2.2,3.4,2.2c1.7,0,3.5-0.9,3.5-2.5c0-0.2,0-0.3-0.1-0.5c-0.3-1.2-1.9-1.4-3.4-1.5c-2.4-0.2-5.3-0.8-5.5-4l0,0
				c-0.1-1,0.2-2.1,0.8-3c1-1.4,2.9-2.1,4.7-2.1c2.4,0,4.9,1.2,5.3,4.1L15.2,151.9z"/>
			<path class="st0" d="M33.8,154.5h6.6V148h2.3v15.5h-2.3v-6.7h-6.6v6.7h-2.2V148h2.2V154.5z"/>
			<path class="st0" d="M58.5,150c1.4-1.5,3.5-2.4,5.7-2.4s4.2,0.9,5.7,2.4c1.4,1.5,2.3,3.5,2.3,5.7s-0.9,4.2-2.3,5.7
				c-1.5,1.5-3.5,2.4-5.7,2.4c-2.2,0-4.2-0.9-5.7-2.4c-1.4-1.5-2.3-3.5-2.3-5.7C56.2,153.4,57.1,151.5,58.5,150z M68.2,151.6
				c-1-1.1-2.5-1.7-4.1-1.7s-3,0.6-4,1.7c-1,1-1.7,2.5-1.7,4.1s0.6,3,1.7,4.1c1,1.1,2.5,1.7,4,1.7c1.6,0,3-0.6,4.1-1.7
				c1-1,1.7-2.4,1.7-4.1C69.9,154,69.3,152.6,68.2,151.6z"/>
			<path class="st0" d="M87.5,150c1.4-1.5,3.5-2.4,5.7-2.4s4.2,0.9,5.7,2.4c1.4,1.5,2.3,3.5,2.3,5.7s-0.9,4.2-2.3,5.7
				c-1.5,1.5-3.5,2.4-5.7,2.4s-4.2-0.9-5.7-2.4c-1.4-1.5-2.3-3.5-2.3-5.7C85.2,153.4,86.1,151.5,87.5,150z M97.2,151.6
				c-1-1.1-2.5-1.7-4.1-1.7s-3,0.6-4,1.7c-1,1-1.7,2.5-1.7,4.1s0.6,3,1.7,4.1c1,1.1,2.5,1.7,4,1.7c1.6,0,3-0.6,4.1-1.7
				c1-1,1.7-2.4,1.7-4.1C98.9,154,98.3,152.6,97.2,151.6z"/>
			<path class="st0" d="M117.8,163.4V150h-4.7v-2.1h11.6v2.1H120v13.4H117.8z"/>
			<path class="st0" d="M139.9,161.2h7.2v2.2h-9.5v-15.5h9.5v2.2h-7.2v4.4h7v2.3h-7V161.2z"/>
			<path class="st0" d="M163.9,155.6h2.6c1.9,0,2.8-1.4,2.8-2.7s-0.9-2.7-2.8-2.7h-3.4v13.3h-2.2V148h5.7c3.4,0,5.1,2.5,5.1,4.9
				c0,2.2-1.4,4.3-4,4.7l4.9,5.8h-2.9l-5.7-6.8v-1L163.9,155.6L163.9,155.6z"/>
			<path class="st0" d="M193.7,151.9c-0.3-1.4-1.8-2-3.2-2c-1,0-2.2,0.4-2.8,1.2c-0.3,0.4-0.4,0.9-0.4,1.4c0.1,1.6,1.9,1.8,3.5,2
				c2.1,0.3,4.8,0.8,5.4,3.3c0.1,0.3,0.1,0.7,0.1,1c0,3-3,4.7-5.8,4.7c-2.4,0-5.3-1.4-5.6-4.2v-0.4h2.3v0.3v-0.1
				c0.2,1.4,1.9,2.2,3.4,2.2c1.7,0,3.5-0.9,3.5-2.5c0-0.2,0-0.3-0.1-0.5c-0.3-1.2-1.9-1.4-3.4-1.5c-2.4-0.2-5.3-0.8-5.5-4l0,0
				c-0.1-1,0.2-2.1,0.8-3c1-1.4,2.9-2.1,4.7-2.1c2.4,0,4.9,1.2,5.3,4.1L193.7,151.9z"/>
		</g>
	</g>
	<path class="st0" d="M133.8,125.3c6.4-1.6,10.4-6.8,10.4-13.6c0-7.2-5.1-14.4-14.7-14.4h-16.4v44.3h7.7v-36.5h8.7
		c4.8,0,7,3.4,7,6.6s-2.2,6.7-7,6.7h-7.2v4.9l15.2,18.3h10L133.8,125.3z"/>
	<g>
		<g>
			<path class="st1" d="M199.2,48.9l0.1-0.7c-0.9-0.2-1.5-0.3-2.6-0.6l-0.2,1.1l-29.3-2.2l-0.1-0.7l-4.8-1.6c-0.1,0-0.5,0.1-0.5,0.3
				h-0.5c-0.2,0.2-0.2,2.1-0.2,2.1c-2.4-0.2-2.8,1.3-1.6,2.8c0,0-0.2,0.3-0.3,0.6c-0.1,0.5-0.1,1.2-0.3,1.4c0.1-0.1-2,0.8-2.4,1
				c0,0-0.1,0-0.2,0c-0.3-0.1-1.3-0.2-1.9-0.2c-0.6,0,0.8,1,1,1.1c-2.4,1.9-3.8,4.9-7.4,5.9c-0.7,0.1-2.6,0.8-5.1,1.1
				c-4.7,0.6-10.8,2.4-14.8,2.8c-3.4,0.4-14,1.1-17.5,1.2c-5.1,0.2-12.6,3.7-18.5,4.2C82,68.9,70,70.3,61,67.1
				c-0.3-1.4-10.6-2.9-9.4-4.1c0.6-0.5,1.1-1.2,2-1.7c4.5-2.7,13.6,2.7,13.6-5.2c-0.1-1.2-0.7-1.7,0.3-2.7c1.4-0.9,1.5-1.9,0.4-2.7
				c1.5-0.3,0.8-1.5,1-2.8c0-2.3,1.3-1.8,2.8-2.5c2.6-1,0.2-5.1-0.5-6.3c0,0,0.9-2.1,1-2.4c0.4-0.7,0.5-1.7-0.2-2.1v-0.5
				c3,0.7,8.5,1.4,11.1-1.7c1.5-1.4,3-3.9,3.3-5.3c0-0.2,0.3-0.7-0.6-0.9c-0.9-0.2-14.5-4.4-14.5-4.4s-0.1-0.2-0.4-1
				S66,10.2,62.8,7.3C57.7,2.8,50.7,0.8,43.5,1c0-1.5-3.7-0.7-3.2,0.5c-4.5,1.7-9.9,3.2-13.6,7.6c-2.6,3.1-4.8,6.3-4.1,10.2
				c0,0.2-0.2,0.6-0.3,0.8c0,0.2,0,0-0.3,0.2c-0.5,0.4-0.6,0.6-0.6,1.1c-9.6-2.7-16.2,4.9-16.9,14.5C4,40.7,5.4,45.9,6.8,49
				c0,0-0.7,1.7,0,4.4C7.5,56.1,8,57.5,8,57.5c-0.6,2.1,2.8,5.5,3.6,6.2l0.3,0.2c0,0-0.3,0.4-0.3,0.5c-0.2,0.3-1.1,1.3-1.1,1.3
				l-0.8,0.5l0.2,0.2c0,0-0.2,0.5-0.8,1c-1.2,1.1-1.6,1.6-2.6,2.3c1.1-0.2,3.3-1.6,3.9-2.4c-0.9,1.4-2.4,3.3-4.1,4.3h1.1
				c-0.4,1.7-6.2,1.9-7,1.8c0,0,0.3,0.4,0.4,0.5c-0.5,0-0.7,0.1-0.8,0.2c0,0,0.3,0.3,0.8,0.6H0c0,0,0.1,0.4,1.7,0.5
				c3.8,0.8,6.4-1.9,8.4-3.2c0,0.1-0.8,1.5-1.3,2c-0.8,0.8-1,0.8-1.1,1.3c0,0,0.5,0.2,0.7,0c0.2-0.2,0.1,0.3,0,0.5s-1,1.3-1.7,1.8
				c-0.8,0.5-2.9,1.3-3.2,1.4c0,0,0.8,0,1.2,0C5.4,78.9,6,78.7,6,78.7S5.9,79,5,79.5c-1.5,0.8-3.3,0.2-4.3-0.3
				c1.4,2.4,6.2,1.6,7.7-0.4c0,0-0.1,1.2-0.3,1.6C7.7,81.3,2.9,81,2.6,81c0,0,0.3,0.5,1,0.8c2.8,1,4.4,0.5,4.7,0.7
				c1,3.8-0.5,8.4,0.5,15.4c1.9,12.4,2.8,42.2,2.7,43.9h42.2c0.9-2.4,0.5-14.2,3.1-15.2c12.7-5.2,13.6-15.1,6.7-25.3
				c-2.8-3.7-1.9-5.9-2.4-8.3c9.7-1.4,25.9-6.6,36.1-7.5c1.6-0.2,3.7-0.4,5.4-0.3c5.2,0.2,9.6-1.3,13.7-1.9
				c5.4-0.8,13.6-3.7,19.2-5.9c5.6-1.6,11-4,15-5.5c0.6,0,2.2-0.1,2.2-0.1v1.6c0,0,2.4,0.7,5.6,0.8c2.2,0.1,4.7,1.7,8.2,0.9
				c1.6-0.6,2.5-1.3,2.3-2.8c0.1,0.2,1.7-0.1,2.6-0.9c0.8-0.6,1.1-1.6,0.4-2.5c0.5,0,2.2-0.3,2.8-1.1c0.2-0.3,0.1-0.6,0.1-0.9
				c0.7,0.1,2.4-0.1,3.1-1c0.5-0.6,0.5-1.4,0.1-2.5c2.4,0.2,2.9-1.4,3-2.4c0.1-2.3,0.2-3.6,2-4.4c0.3-0.1,0.5-0.1,1-0.1
				c4,0.2,14.5,0.9,15,0.9l0.1-1.2h0.3l0.2-3h0.5l0.3-4C199.9,49,199.2,48.9,199.2,48.9z M22.7,30.6c-0.1,0.1,0.7-3.2,0.7-3
				c0.3,0.1,0.7,0.1,1.2,0.1c0.8,0,0.6,1.5,0.5,1.9c-0.3,1,0.1,3.2,0.6,4c0.3,0.5,1.2,1.2,1.3,1.3c0.2,0.2-1.7,3.6-2.2,2.8
				c-0.6-0.7-1.4-1.8-1.9-2.7C22.6,34.3,22,32.3,22.7,30.6z M26.5,58.1c-1,0.2-1.8-0.1-1.6-0.8c0.1-0.7,0.7-2.9,0.8-3.3
				c0.1-0.5,0.5-1.7,0.5-1.7c0.4,0.2,2.7,1.5,2.7,2.7C28.8,55.6,27.4,57.9,26.5,58.1z M180,60.5c0,1.3-0.4,2-1.2,2
				c-3.6,0.1-3.3-1.1-3.3-2.8c0-0.4,0.8-0.3,0.8-0.2c0.3,1,2.5,0.8,2.7-0.5c0-0.4,0-0.8,0-1.2h1.1C180,58.9,180,59.4,180,60.5z"/>
		</g>
	</g>
</g>
</svg>
