<svg xmlns="http://www.w3.org/2000/svg" width="40" height="40" viewBox="0 0 40 40">
    <g fill="none" fill-rule="evenodd">
        <path fill-rule="nonzero" d="M0 0H40V40H0z"/>
        <path fill="#A1C900" d="M32.962 11.875H28.75V17.5h6.962c.518 0 .938-.42.938-.938 0-.199-.064-.393-.182-.554l-2.75-3.75c-.176-.24-.457-.383-.756-.383zM4.375 10c0-1.036.84-1.875 1.875-1.875h16.875C24.161 8.125 25 8.965 25 10v2.813c0 .517.42.937.938.937.517 0 .937-.42.937-.938V10.13h6.572c.585 0 1.136.273 1.49.738l4.679 6.13c.249.326.384.726.384 1.137V25c0 1.036-.84 1.875-1.875 1.875h-1.344c-.434-2.14-2.326-3.75-4.593-3.75-2.268 0-4.16 1.61-4.594 3.75H16.156c-.434-2.14-2.326-3.75-4.593-3.75-2.268 0-4.16 1.61-4.594 3.75H6.25c-1.036 0-1.875-.84-1.875-1.875v-7.5h1.25L5 16.875h-.625v-2.5h2.5l-.625-.625H4.375v-2.5H5l-.625-.625V10z"/>
        <path fill="#535252" d="M32.188 31.25c1.898 0 3.437-1.539 3.437-3.438 0-1.898-1.539-3.437-3.438-3.437-1.898 0-3.437 1.539-3.437 3.438 0 1.898 1.539 3.437 3.438 3.437z"/>
        <path fill="#F4F5F5" d="M32.188 29.375c.862 0 1.562-.7 1.562-1.563 0-.862-.7-1.562-1.563-1.562-.862 0-1.562.7-1.562 1.563 0 .862.7 1.562 1.563 1.562z"/>
        <path fill="#535252" d="M11.563 31.25c1.898 0 3.437-1.539 3.437-3.438 0-1.898-1.539-3.437-3.438-3.437-1.898 0-3.437 1.539-3.437 3.438 0 1.898 1.539 3.437 3.438 3.437z"/>
        <path fill="#F4F5F5" d="M11.563 29.375c.862 0 1.562-.7 1.562-1.563 0-.862-.7-1.562-1.563-1.562-.862 0-1.562.7-1.562 1.563 0 .862.7 1.562 1.563 1.562z"/>
        <path fill="#84B517" d="M5.625 17.5L5 16.875h-.625v-1.25H.625C.28 15.625 0 15.345 0 15s.28-.625.625-.625h6.25l-.625-.625H4.375V12.5h-1.25c-.345 0-.625-.28-.625-.625s.28-.625.625-.625H5l-.59-.589c.224-1.437 1.466-2.536 2.965-2.536h16.5c1.657 0 3 1.343 3 3v10.75h-22.5V18.75H2.5c-.345 0-.625-.28-.625-.625s.28-.625.625-.625h3.125z"/>
    </g>
</svg>
