<?xml version="1.0" encoding="utf-8"?>
<!-- Generator: Adobe Illustrator 23.0.1, SVG Export Plug-In . SVG Version: 6.00 Build 0)  -->
<svg version="1.1" id="Layer_1" xmlns="http://www.w3.org/2000/svg" xmlns:xlink="http://www.w3.org/1999/xlink" x="0px" y="0px"
	 viewBox="0 0 36 24" enable-background="new 0 0 36 24" xml:space="preserve">
<title>Artboard 1 copy 4</title>
<path fill="#FFFFFF" d="M3.104,0.35h29.765c1.466,0,2.654,1.188,2.654,2.654v17.993c0,1.466-1.188,2.654-2.654,2.654H3.104
	c-1.466,0-2.654-1.188-2.654-2.654V3.003C0.451,1.538,1.639,0.35,3.104,0.35z"/>
<path fill="#DDDDDD" d="M32.987,1c1.105,0,2,0.895,2,2v18c0,1.105-0.895,2-2,2h-30c-1.105,0-2-0.895-2-2V3c0-1.105,0.895-2,2-2
	H32.987 M32.987,0h-30c-1.655,0.005-2.995,1.345-3,3v18c0.005,1.655,1.345,2.995,3,3h30c1.655-0.005,2.995-1.345,3-3V3
	C35.982,1.345,34.642,0.005,32.987,0z"/>
<path fill="#1999D6" d="M24.458,15.412c-1.54,0.122-2.886-1.028-3.008-2.567c-0.011-0.14-0.012-0.281-0.001-0.421
	c0.138-2.239,2.006-3.978,4.25-3.955c0.788-0.007,1.568,0.17,2.276,0.516l-0.303,1.601c-0.638-0.381-1.37-0.577-2.113-0.565
	c-1.264-0.047-2.33,0.935-2.387,2.199c-0.09,0.825,0.507,1.566,1.332,1.656c0.081,0.009,0.163,0.011,0.245,0.006
	c0.237-0.002,0.473-0.03,0.704-0.082l0.414-2.186h1.613l-0.626,3.3C26.097,15.241,25.282,15.411,24.458,15.412"/>
<polygon fill="#1999D6" points="32.618,11.613 29.404,9.697 28.556,14.18 "/>
<path fill="#30414A" d="M8.732,10.901c0.708-0.084,1.349,0.422,1.433,1.129c0.005,0.038,0.007,0.077,0.008,0.115
	c-0.028,0.933-0.798,1.672-1.732,1.662c-0.706,0.085-1.347-0.418-1.432-1.125c-0.005-0.04-0.008-0.08-0.009-0.12
	C7.03,11.63,7.799,10.892,8.732,10.901 M8.458,13.034c0.441-0.016,0.787-0.386,0.774-0.827C9.252,11.936,9.05,11.7,8.779,11.68
	c-0.018-0.001-0.037-0.002-0.055-0.001c-0.444,0.026-0.788,0.399-0.778,0.843c-0.02,0.263,0.177,0.492,0.44,0.512
	C8.41,13.035,8.434,13.035,8.458,13.034"/>
<path fill="#30414A" d="M11.132,9.885h1.474c0.203-0.006,0.405,0.035,0.59,0.119c0.366,0.184,0.587,0.569,0.561,0.979
	c0.008,0.611-0.336,1.172-0.884,1.441c-0.186,0.086-0.389,0.131-0.594,0.131h-0.716l-0.233,1.191h-0.946L11.132,9.885z
	 M12.176,11.744c0.112,0.006,0.224-0.022,0.319-0.082c0.189-0.138,0.298-0.36,0.291-0.594c0.016-0.191-0.127-0.359-0.318-0.374
	c-0.024-0.002-0.047-0.001-0.071,0.002h-0.475l-0.205,1.048L12.176,11.744z"/>
<path fill="#30414A" d="M15.512,12.01h0.037c0.004-0.037,0.012-0.086,0.012-0.102c0-0.184-0.131-0.254-0.352-0.254
	c-0.282,0.028-0.555,0.115-0.802,0.254l-0.201-0.7c0.369-0.187,0.774-0.292,1.187-0.307c0.471,0,1.101,0.184,1.101,0.884
	c-0.002,0.091-0.012,0.181-0.029,0.27l-0.323,1.691h-0.852l0.033-0.168c0.011-0.059,0.028-0.116,0.049-0.172h-0.012
	c-0.201,0.248-0.5,0.396-0.819,0.405c-0.41,0.038-0.774-0.264-0.812-0.674c-0.001-0.014-0.002-0.028-0.003-0.043
	C13.727,12.248,14.8,12.01,15.512,12.01 M14.89,13.095c0.266-0.036,0.484-0.231,0.549-0.491l0.012-0.061h-0.086
	c-0.201,0-0.7,0.045-0.7,0.373C14.665,13.017,14.734,13.095,14.89,13.095"/>
<path fill="#30414A" d="M16.97,14.094c0.208,0.009,0.403-0.101,0.504-0.283l0.082-0.131l-0.651-2.727h0.97l0.225,1.376
	c0.019,0.136,0.029,0.272,0.029,0.409h0.012c0,0,0.098-0.242,0.168-0.393l0.622-1.392h1.048l-1.736,3.075
	c-0.263,0.675-1.024,1.009-1.699,0.746c-0.086-0.034-0.169-0.076-0.246-0.127L16.704,14C16.776,14.066,16.872,14.1,16.97,14.094"/>
<path fill="#30414A" d="M4.888,13.828c-0.902,0.074-1.693-0.597-1.767-1.499c-0.007-0.08-0.007-0.161-0.002-0.241
	c0.087-1.31,1.184-2.323,2.497-2.305c0.461-0.006,0.917,0.096,1.331,0.299l-0.176,0.933c-0.374-0.223-0.802-0.337-1.236-0.332
	c-0.74-0.029-1.365,0.542-1.404,1.281c-0.051,0.483,0.299,0.916,0.782,0.967c0.048,0.005,0.096,0.006,0.143,0.003
	c0.139,0,0.278-0.017,0.414-0.049l0.242-1.273h0.946l-0.364,1.924C5.849,13.729,5.371,13.828,4.888,13.828"/>
</svg>
