<svg xmlns="http://www.w3.org/2000/svg" width="64" height="64" viewBox="0 0 64 64">
    <g fill="none" fill-rule="evenodd">
        <path fill="#F5C88F" fill-rule="nonzero" d="M40.514 42.693a1.81 1.81 0 0 1-.978 3.4l-11.548-3.297a1 1 0 1 0-.549 1.923l11.64 3.322.167.033a3.81 3.81 0 0 0 3.117-6.468c4.148-2.444 7.064-4.2 8.749-5.265 4.037-2.656 8.179 2.746 4.448 5.703-1.901 1.396-6.997 5.179-15.286 11.35a6 6 0 0 1-5.536.86l-10.972-3.777a8 8 0 0 0-7.962 1.624l-1.169 1.054v-13.49l4.298-1.914a12 12 0 0 1 9.522-.106l12.053 5.052.006-.004z"/>
        <path fill="#00275B" fill-rule="nonzero" d="M14 37a1 1 0 0 1 1 1v17a1 1 0 0 1-1 1H8a1 1 0 0 1-1-1V38a1 1 0 0 1 1-1"/>
        <path fill="#128AB0" d="M54 33.66l-.182-.019a5.37 5.37 0 0 0-3.292.735l-10.168 6.08-11.312-4.723a13.182 13.182 0 0 0-7.046-.87V16a2 2 0 0 1 2-2h7v-4a2 2 0 0 1 2-2h10a2 2 0 0 1 2 2v4h7a2 2 0 0 1 2 2m-21-5.8c0-.11.09-.2.2-.2h9.6c.11 0 .2.09.2.2V14H33v-3.8zM31.029 16H33v4.014a.986.986 0 0 1-1.971 0V16zM43 16h2v4a1 1 0 0 1-2 0v-4z"/>
    </g>
</svg>
