<?xml version="1.0" encoding="utf-8"?>
<!-- Generator: Adobe Illustrator 23.0.1, SVG Export Plug-In . SVG Version: 6.00 Build 0)  -->
<svg version="1.1" id="Visa_Logo" xmlns="http://www.w3.org/2000/svg" xmlns:xlink="http://www.w3.org/1999/xlink" x="0px" y="0px"
	 viewBox="0 0 96.3 29.5" style="enable-background:new 0 0 96.3 29.5;" xml:space="preserve">
<style type="text/css">
	.st0{fill:url(#SVGID_1_);}
	.st1{fill:#FF5F00;}
	.st2{fill:#EB001B;}
	.st3{fill:#F79E1B;}
</style>
<linearGradient id="SVGID_1_" gradientUnits="userSpaceOnUse" x1="46.9182" y1="-8.95" x2="96.2738" y2="-8.95" gradientTransform="matrix(1 0 0 -1 0 6.6)">
	<stop  offset="0" style="stop-color:#272158"/>
	<stop  offset="1" style="stop-color:#164194"/>
</linearGradient>
<path class="st0" d="M65.7,7.9l-6.5,15.4H55L51.8,11c-0.2-0.8-0.4-1-0.9-1.4c-1-0.5-2.5-1-3.9-1.3l0.1-0.4h6.8
	c0.9,0,1.6,0.6,1.8,1.6l1.7,8.9l4.2-10.5C61.5,7.9,65.7,7.9,65.7,7.9z M82.2,18.3c0-4.1-5.6-4.3-5.6-6.1c0-0.6,0.5-1.1,1.7-1.3
	c0.6-0.1,2.1-0.1,3.9,0.7l0.7-3.3c-1-0.3-2.2-0.7-3.7-0.7c-3.9,0-6.7,2.1-6.7,5.1c0,2.2,2,3.5,3.5,4.2c1.6,0.8,2.1,1.2,2.1,1.9
	c0,1-1.2,1.5-2.4,1.5c-2,0-3.2-0.5-4.1-1l-0.7,3.4c0.9,0.4,2.7,0.8,4.4,0.8C79.4,23.5,82.2,21.5,82.2,18.3 M92.6,23.3h3.7L93.1,7.9
	h-3.4c-0.8,0-1.4,0.4-1.7,1.1l-6,14.3h4.2L87,21h5.1L92.6,23.3z M88.1,17.8l2.1-5.8l1.2,5.8H88.1z M71.4,7.9l-3.3,15.4h-4l3.3-15.4
	H71.4z"/>
<g>
	<path d="M6.9,29.5v-2c0-0.8-0.5-1.2-1.2-1.2c-0.4,0-0.8,0.1-1.1,0.6c-0.2-0.4-0.6-0.6-1-0.6c-0.3,0-0.7,0.1-0.9,0.5v-0.4H1.9v3.1
		h0.7v-1.7c0-0.6,0.3-0.8,0.8-0.8s0.7,0.2,0.7,0.8v1.7h0.7v-1.7c0-0.6,0.3-0.8,0.8-0.8s0.7,0.3,0.7,0.8v1.7H6.9L6.9,29.5z
		 M17.1,26.4H16v-0.9h-0.7v0.9h-0.6V27h0.6v1.4c0,0.7,0.3,1.1,1.1,1.1c0.3,0,0.6-0.1,0.9-0.2l-0.2-0.6c-0.2,0.1-0.4,0.2-0.6,0.2
		c-0.3,0-0.5-0.2-0.5-0.5V27h1.1V26.4L17.1,26.4z M22.9,26.3c-0.4,0-0.7,0.2-0.8,0.5v-0.4h-0.7v3.1h0.7v-1.8c0-0.5,0.2-0.8,0.7-0.8
		c0.1,0,0.3,0,0.4,0.1l0.2-0.7C23.3,26.3,23.1,26.3,22.9,26.3L22.9,26.3L22.9,26.3z M14.1,26.6c-0.3-0.2-0.8-0.3-1.3-0.3
		c-0.8,0-1.3,0.4-1.3,1c0,0.5,0.4,0.8,1.1,0.9h0.3c0.4,0.1,0.6,0.2,0.6,0.3c0,0.2-0.3,0.4-0.7,0.4s-0.8-0.2-1-0.3l-0.3,0.5
		c0.4,0.3,0.9,0.4,1.3,0.4c0.9,0,1.4-0.4,1.4-1c0-0.6-0.4-0.9-1.1-0.9h-0.3c-0.3,0-0.5-0.1-0.5-0.3c0-0.2,0.2-0.4,0.6-0.4
		c0.4,0,0.8,0.2,1,0.3L14.1,26.6L14.1,26.6z M32.4,26.3c-0.4,0-0.7,0.2-0.8,0.5v-0.4h-0.7v3.1h0.7v-1.8c0-0.5,0.2-0.8,0.7-0.8
		c0.1,0,0.3,0,0.4,0.1l0.2-0.7C32.7,26.3,32.5,26.3,32.4,26.3L32.4,26.3L32.4,26.3z M23.6,27.9c0,0.9,0.7,1.6,1.7,1.6
		c0.5,0,0.8-0.1,1.1-0.4l-0.3-0.5c-0.3,0.2-0.5,0.3-0.8,0.3c-0.6,0-0.9-0.4-0.9-1c0-0.6,0.4-1,0.9-1c0.3,0,0.6,0.1,0.8,0.3l0.3-0.6
		c-0.3-0.2-0.7-0.3-1.1-0.3C24.3,26.3,23.6,27,23.6,27.9L23.6,27.9L23.6,27.9z M30,27.9v-1.6h-0.7v0.4c-0.2-0.3-0.6-0.5-1-0.5
		c-0.9,0-1.6,0.7-1.6,1.6c0,0.9,0.7,1.6,1.6,1.6c0.5,0,0.8-0.2,1-0.5v0.4H30V27.9z M27.4,27.9c0-0.6,0.4-1,0.9-1
		c0.6,0,0.9,0.4,0.9,1c0,0.6-0.4,1-0.9,1C27.8,28.9,27.4,28.5,27.4,27.9L27.4,27.9z M19.2,26.3c-0.9,0-1.6,0.7-1.6,1.6
		c0,1,0.7,1.6,1.6,1.6c0.5,0,0.9-0.1,1.3-0.4l-0.3-0.5c-0.3,0.2-0.6,0.3-0.9,0.3c-0.4,0-0.9-0.2-0.9-0.8h2.3v-0.3
		C20.7,26.9,20.1,26.3,19.2,26.3L19.2,26.3L19.2,26.3z M19.2,26.9c0.4,0,0.7,0.3,0.8,0.8h-1.6C18.4,27.2,18.7,26.9,19.2,26.9
		L19.2,26.9z M36.3,27.9v-2.8h-0.7v1.6c-0.2-0.3-0.6-0.5-1-0.5c-0.9,0-1.6,0.7-1.6,1.6c0,0.9,0.7,1.6,1.6,1.6c0.5,0,0.8-0.2,1-0.5
		v0.4h0.7V27.9z M33.8,27.9c0-0.6,0.4-1,0.9-1c0.6,0,0.9,0.4,0.9,1c0,0.6-0.4,1-0.9,1C34.1,28.9,33.8,28.5,33.8,27.9L33.8,27.9z
		 M10.8,27.9v-1.6h-0.7v0.4c-0.2-0.3-0.6-0.5-1-0.5c-0.9,0-1.6,0.7-1.6,1.6c0,0.9,0.7,1.6,1.6,1.6c0.5,0,0.8-0.2,1-0.5v0.4h0.7V27.9
		z M8.2,27.9c0-0.6,0.4-1,0.9-1c0.6,0,0.9,0.4,0.9,1c0,0.6-0.4,1-0.9,1S8.2,28.5,8.2,27.9z"/>
	<rect x="13.9" y="2.5" class="st1" width="10.3" height="18.5"/>
	<path class="st2" d="M14.6,11.8c0-3.8,1.8-7.1,4.5-9.3c-2-1.6-4.5-2.5-7.3-2.5C5.3,0,0,5.3,0,11.8s5.3,11.8,11.8,11.8
		c2.7,0,5.3-0.9,7.3-2.5C16.3,18.9,14.6,15.5,14.6,11.8z"/>
	<path class="st3" d="M38.1,11.8c0,6.5-5.3,11.8-11.8,11.8c-2.7,0-5.3-0.9-7.3-2.5c2.7-2.2,4.5-5.5,4.5-9.3s-1.7-7.1-4.4-9.3
		c2-1.6,4.5-2.5,7.3-2.5C32.8,0,38.1,5.3,38.1,11.8z"/>
</g>
</svg>
