<?xml version="1.0" encoding="utf-8"?>
<!-- Generator: Adobe Illustrator 23.0.1, SVG Export Plug-In . SVG Version: 6.00 Build 0)  -->
<svg version="1.1" id="Vrstva_1" xmlns="http://www.w3.org/2000/svg" xmlns:xlink="http://www.w3.org/1999/xlink" x="0px" y="0px"
	 viewBox="0 0 100 26" style="enable-background:new 0 0 100 26;" xml:space="preserve">
<style type="text/css">
	.st0{fill:#BA1B02;}
	.st1{fill-rule:evenodd;clip-rule:evenodd;fill:#FFFFFF;}
	.st2{fill-rule:evenodd;clip-rule:evenodd;fill:#AAAAAA;}
	.st3{fill-rule:evenodd;clip-rule:evenodd;fill:#D8D8D8;}
	.st4{fill:#FFFFFF;}
</style>
<title>Zasilkovna_logo_obdelnik_CZ_RGB</title>
<g id="Layer_2">
	<rect class="st0" width="100" height="26"/>
</g>
<g id="Layer_4">
	<path class="st1" d="M19.8,11.6l-0.4,0.2L19,11.6l-5.8-2.9l2.8-1.1l6,2.9L19.8,11.6z M25.7,8.7l-2.1,1l-6.1-2.7l1.9-0.7L25.7,8.7z"
		/>
	<path class="st1" d="M19.6,4.5l7.7,3l-1.1,0.9l-6.8-2.6l-6.8,2.6l-1.1-0.9l7.7-3L19.6,4.5z M26.4,8.5l1.3-0.5l-1,7.8l-0.2,0.4
		l-6.7,6l-0.2-1.4l6-5.4L26.4,8.5z M12.3,16.3l-0.2-0.4l-1-7.8l1.3,0.5l0.8,7l6,5.4L19,22.3L12.3,16.3z"/>
	<polygon class="st2" points="23.7,10 25.7,8.8 24.9,15.1 19.5,20.1 19.8,12.4 22.1,11 22,14.7 23.5,13.6 	"/>
	<polygon class="st3" points="19.1,12.4 19.4,20 13.9,15.1 13.1,8.8 	"/>
	<path class="st1" d="M81,10.9c0.4,0.2,0.8,0.5,1.1,0.9c0.3,0.4,0.4,0.9,0.4,1.4v5h-1.6v-4.9c0-0.3-0.1-0.5-0.3-0.7
		c-0.2-0.2-0.5-0.3-0.7-0.4c-0.3-0.1-0.6-0.1-0.9,0c-0.3,0-0.5,0.1-0.8,0.2v5.9h-1.6v-7.1c0.1,0,0.3,0,0.4-0.1l0.8-0.3
		c0.4-0.1,0.9-0.2,1.3-0.2c0,0,0.1,0,0.1,0c0.1,0,0.3,0,0.4,0C80.1,10.6,80.6,10.7,81,10.9z"/>
	<path class="st1" d="M76.3,11.1l-2.5,7.1h-1.7l-2.5-7.1c0.5,0,1.1-0.1,1.5-0.4l1.5,4.4l0.2,1.5h0.1l0.2-1.5l1.5-4.4
		C75.3,11,75.8,11.1,76.3,11.1z"/>
	<path class="st1" d="M50.5,14.1c0.4,0.1,0.7,0.4,0.9,0.7c0.3,0.4,0.4,0.8,0.4,1.3c0,0.5-0.2,1-0.5,1.4c-0.3,0.4-0.7,0.6-1.2,0.8
		c-1,0.3-2.1,0.2-2.9-0.4c-0.5-0.3-0.8-0.7-1-1.2l1.2-0.8c0.2,0.3,0.4,0.6,0.8,0.8c0.3,0.2,0.6,0.3,0.9,0.3c0.3,0,0.6,0,0.8-0.2
		c0.2-0.1,0.4-0.4,0.4-0.7c0-0.2-0.1-0.3-0.2-0.4c-0.1-0.1-0.3-0.2-0.4-0.3c-0.2-0.1-0.4-0.1-0.5-0.1c-0.3-0.1-0.6-0.1-0.9-0.2
		c-0.3-0.1-0.6-0.2-0.9-0.4c-0.3-0.2-0.5-0.4-0.7-0.7c-0.2-0.3-0.2-0.6-0.3-0.9v0c0,0,0-0.1,0-0.1c0-0.5,0.1-1,0.4-1.3
		c0.3-0.3,0.6-0.6,1.1-0.7c0.4-0.1,0.8-0.2,1.3-0.2c0.4,0,0.8,0.1,1.2,0.3c0.4,0.2,0.9,0.5,1.2,0.8l-1,1c-0.2-0.2-0.5-0.4-0.8-0.5
		c-0.3-0.1-0.6-0.2-0.9-0.2c-0.3,0-0.5,0-0.7,0.2c-0.2,0.1-0.3,0.3-0.3,0.5c0,0.2,0.1,0.4,0.2,0.5c0.2,0.1,0.3,0.2,0.5,0.3
		c0.2,0.1,0.4,0.1,0.6,0.2C49.7,13.8,50.1,13.9,50.5,14.1z"/>
	<path class="st1" d="M53.9,8.2c0.2,0.2,0.3,0.5,0.3,0.7c0,0.3-0.1,0.5-0.3,0.7c-0.2,0.2-0.5,0.3-0.7,0.3c-0.3,0-0.5-0.1-0.7-0.3
		c-0.2-0.2-0.3-0.4-0.3-0.7c0-0.3,0.1-0.5,0.3-0.7c0.2-0.2,0.4-0.3,0.7-0.3C53.4,7.9,53.7,8,53.9,8.2z"/>
	<path class="st1" d="M57.9,16.8V7.9h1.6v5.8l0.8-0.8v0l1.9-2.2h2l-3.1,3.5l3.1,4h-1.9L60,15.1l-0.4,0.4v2.6L58,18.3h-0.1
		c0,0-0.1,0-0.1,0h-0.1c-1-0.1-1.7-0.3-2.2-0.7c-0.5-0.5-0.7-1.1-0.8-1.9V8h1.6v7.7c0,0.3,0.1,0.6,0.3,0.8
		C56.9,16.6,57.3,16.7,57.9,16.8"/>
	<rect x="52.4" y="10.7" class="st4" width="1.6" height="7.5"/>
	<polygon class="st1" points="43.5,10.2 41.9,10.2 42.9,8.5 44.9,8.5 	"/>
	<path class="st1" d="M88.4,11.7c-0.3-0.4-0.7-0.7-1.1-0.8c-0.4-0.2-0.9-0.3-1.4-0.3c-0.5,0-1,0.1-1.4,0.3c-0.5,0.2-1,0.5-1.3,0.9
		l0.9,0.8c0.2-0.2,0.5-0.4,0.8-0.5c0.3-0.1,0.7-0.1,1-0.1c0.3,0,0.6,0.1,0.9,0.3c0.3,0.2,0.4,0.5,0.5,0.8v0.5
		c-0.4-0.2-0.9-0.3-1.4-0.3c-0.5,0-0.9,0-1.4,0.2c-0.9,0.3-1.6,1.2-1.5,2.2c0,0.5,0.1,1.1,0.4,1.5c0.2,0.4,0.6,0.7,1,0.9
		c0.4,0.2,0.9,0.3,1.4,0.3c0.5,0,1.1,0,1.6-0.1c0.5-0.1,1-0.2,1.5-0.4v-4.8C88.9,12.6,88.7,12.1,88.4,11.7z M87.3,16.9
		C87,17,86.7,17,86.3,17c-0.3,0-0.6,0-0.9-0.1c-0.6-0.1-1-0.7-0.9-1.3c0-0.3,0.1-0.5,0.3-0.7c0.2-0.2,0.5-0.3,0.8-0.3
		c0.3,0,0.6,0,0.9,0c0.3,0,0.5,0.1,0.8,0.2V16.9z"/>
	<path class="st1" d="M69.6,12.4c-0.1-0.2-0.2-0.5-0.3-0.6c-0.3-0.4-0.7-0.7-1.1-0.9c-0.4-0.2-0.9-0.3-1.4-0.3c-0.1,0-0.2,0-0.3,0
		c-0.4,0-0.7,0.1-1.1,0.3c-0.3,0.1-0.5,0.3-0.7,0.5c-0.6,0.5-0.9,1.1-0.8,1.8v2.6c0,0.5,0.1,1,0.4,1.4c0.1,0.2,0.3,0.4,0.5,0.5
		c0.2,0.1,0.4,0.3,0.6,0.4c0.3,0.1,0.7,0.2,1.1,0.3c0.1,0,0.2,0,0.3,0c0.5,0,1-0.1,1.4-0.3c0.4-0.2,0.8-0.5,1.1-0.9
		c0.3-0.4,0.5-0.9,0.4-1.4v-2.6C69.7,12.9,69.7,12.6,69.6,12.4z M68.1,15.8c0,0.2-0.1,0.4-0.2,0.6c-0.1,0.2-0.3,0.3-0.5,0.4
		c-0.2,0.1-0.4,0.1-0.6,0.1c-0.1,0-0.2,0-0.3,0c-0.1,0-0.2-0.1-0.3-0.1c-0.2-0.1-0.4-0.2-0.5-0.4c-0.1-0.2-0.2-0.4-0.2-0.6v-2.6
		c0-0.2,0.1-0.4,0.2-0.6c0.1-0.2,0.3-0.3,0.5-0.3c0.1,0,0.2-0.1,0.3-0.1c0.1,0,0.2,0,0.3,0c0.2,0,0.4,0,0.6,0.1
		c0.2,0.1,0.4,0.2,0.5,0.3c0.1,0.2,0.2,0.4,0.2,0.6V15.8z"/>
	<path class="st1" d="M45.3,11.7c-0.3-0.4-0.7-0.7-1.1-0.8c-0.4-0.2-0.9-0.3-1.4-0.3c-0.4,0-0.9,0.1-1.3,0.2c0,0-0.1,0-0.1,0
		c-0.5,0.2-1,0.5-1.3,0.9l0.9,0.8c0.1-0.1,0.3-0.3,0.5-0.4c0.1-0.1,0.2-0.1,0.4-0.2c0.3-0.1,0.7-0.1,1-0.1c0.3,0,0.6,0.1,0.9,0.3
		c0.3,0.2,0.4,0.5,0.5,0.8v0.5c-0.4-0.2-0.9-0.3-1.4-0.3c-0.4,0-0.9,0-1.3,0.2l-0.1,0c-0.4,0.2-0.8,0.4-1.1,0.8
		c-0.3,0.4-0.5,0.9-0.4,1.4c0,0.3,0,0.6,0.1,0.9h-5.4l5.7-7.5L39.8,8h-7.1v1.6H38l-5.7,7.5l0.4,1.1h7.3v-1.4
		c0.1,0.2,0.2,0.4,0.3,0.5c0.1,0.1,0.2,0.2,0.3,0.3c0.2,0.2,0.4,0.3,0.7,0.4c0.1,0,0.1,0.1,0.2,0.1c0.4,0.1,0.8,0.2,1.2,0.2
		c0.5,0,1.1,0,1.6-0.1c0.5-0.1,1-0.2,1.5-0.4v-4.8C45.8,12.6,45.6,12.1,45.3,11.7z M44.2,16.9C43.9,17,43.6,17,43.3,17
		c-0.3,0-0.6,0-0.9-0.1c-0.3-0.1-0.5-0.2-0.7-0.4c-0.1-0.1-0.1-0.2-0.2-0.3c0-0.2-0.1-0.4-0.1-0.5c0-0.1,0-0.2,0.1-0.3
		c0-0.2,0.2-0.3,0.3-0.4c0.2-0.2,0.5-0.3,0.8-0.3c0.3,0,0.6,0,0.9,0c0.3,0,0.5,0.1,0.8,0.2L44.2,16.9z"/>
</g>
</svg>
